<svg xmlns="http://www.w3.org/2000/svg" width="900" height="500" viewBox="0 0 900 500">
<defs>
  <linearGradient id="g" x1="0" y1="0" x2="1" y2="1">
    <stop offset="0" stop-color="#6ef3c5"/><stop offset="1" stop-color="#ff7ab6"/>
  </linearGradient>
  <filter id="s" x="-20%" y="-20%" width="140%" height="140%">
    <feDropShadow dx="0" dy="18" stdDeviation="18" flood-color="#000" flood-opacity=".35"/>
  </filter>
</defs>
<rect width="900" height="500" rx="40" fill="#0b0f1a"/>
<g opacity=".9">
  <circle cx="160" cy="90" r="90" fill="url(#g)" opacity=".20"/>
  <circle cx="780" cy="120" r="110" fill="url(#g)" opacity=".16"/>
</g>
<g filter="url(#s)">
  <path d="M450 375 C325 295 260 235 260 165 C260 115 305 80 355 80 C395 80 425 98 450 125 C475 98 505 80 545 80 C595 80 640 115 640 165 C640 235 575 295 450 375 Z" fill="url(#g)"/>
  <path d="M330 210 h70 l20 -60 l40 140 l30 -80 h70" fill="none" stroke="rgba(255,255,255,.9)" stroke-width="10" stroke-linecap="round" stroke-linejoin="round"/>
</g>
<g fill="rgba(255,255,255,.9)" font-family="Inter,system-ui" font-weight="800">
  <text x="120" y="120" font-size="34">Учитываем здоровье и самочувствие</text>
</g>
<g fill="rgba(255,255,255,.62)" font-family="Inter,system-ui">
  <text x="120" y="160" font-size="18">Безопасный план: нагрузка, восстановление, привычки.</text>
</g>
</svg>