<svg xmlns="http://www.w3.org/2000/svg" width="900" height="500" viewBox="0 0 900 500">
<defs>
  <linearGradient id="g" x1="0" y1="0" x2="1" y2="1">
    <stop offset="0" stop-color="#ff7ab6"/><stop offset="1" stop-color="#7aa2ff"/>
  </linearGradient>
  <filter id="s" x="-20%" y="-20%" width="140%" height="140%">
    <feDropShadow dx="0" dy="18" stdDeviation="18" flood-color="#000" flood-opacity=".35"/>
  </filter>
</defs>
<rect width="900" height="500" rx="40" fill="#0b0f1a"/>
<path d="M0 360 C200 300 260 420 470 360 C650 305 720 410 900 360 L900 500 L0 500 Z" fill="rgba(122,162,255,.12)"/>
<path d="M0 390 C210 330 260 450 480 392 C660 340 730 440 900 390 L900 500 L0 500 Z" fill="rgba(255,122,182,.10)"/>
<g filter="url(#s)">
  <circle cx="370" cy="230" r="34" fill="url(#g)"/>
  <path d="M380 270 l50 30" stroke="rgba(255,255,255,.85)" stroke-width="14" stroke-linecap="round"/>
  <path d="M410 250 l-35 55" stroke="rgba(255,255,255,.85)" stroke-width="14" stroke-linecap="round"/>
  <path d="M430 300 l45 55" stroke="rgba(255,255,255,.85)" stroke-width="14" stroke-linecap="round"/>
  <path d="M420 305 l-60 35" stroke="rgba(255,255,255,.85)" stroke-width="14" stroke-linecap="round"/>
  <path d="M342 258 l-70 18" stroke="rgba(255,255,255,.75)" stroke-width="12" stroke-linecap="round"/>
</g>
<g fill="rgba(255,255,255,.9)" font-family="Inter,system-ui" font-weight="800">
  <text x="120" y="120" font-size="34">Быстро. Понятно. Мотивирует.</text>
</g>
<g fill="rgba(255,255,255,.62)" font-family="Inter,system-ui">
  <text x="120" y="160" font-size="18">Мини‑квиз подстроит тренировки под тебя и твой график.</text>
</g>
</svg>